<svg width="16" height="16" viewBox="0 0 16 16" fill="none" xmlns="http://www.w3.org/2000/svg">
<g clip-path="url(#clip0_905_2691)">
<path d="M8.31998 0.5C10.3787 0.5 11.8996 1.22583 13.0733 2.23759L12.2357 3.07522C11.2634 2.28093 9.984 1.69533 8.31998 1.69533C4.81683 1.69533 2.08665 4.52362 2.08665 8.00867C2.08665 11.4937 4.81683 14.322 8.31998 14.322C10.5622 14.322 11.8737 13.4107 12.7089 12.5756L12.7111 12.5733C13.4298 11.8454 13.8723 10.8355 14.0425 9.53134L14.1161 8.96667H13.5467H8.81998V7.78H15.2518C15.281 8.04123 15.2953 8.33409 15.2953 8.64867C15.2953 10.2114 14.8597 12.0952 13.5484 13.4064L13.5484 13.4064L13.5418 13.4132C12.2387 14.7664 10.576 15.5 8.31998 15.5C4.17813 15.5 0.704651 12.1233 0.704651 8C0.704651 3.87672 4.17813 0.5 8.31998 0.5Z" fill="#09090B" stroke="#18181B"/>
</g>
<defs>
<clipPath id="clip0_905_2691">
<rect width="16" height="16" fill="white"/>
</clipPath>
</defs>
</svg>
