<svg width="16" height="16" viewBox="0 0 16 16" fill="none" xmlns="http://www.w3.org/2000/svg">
<path d="M7.47266 11.5578L7.47264 11.5578C7.44602 11.5985 7.40279 11.6256 7.35419 11.6318C7.3059 11.638 7.25722 11.6227 7.22104 11.5898C7.22104 11.5898 7.22103 11.5898 7.22102 11.5898L4.28771 8.92318C4.21961 8.86127 4.21458 8.75586 4.2765 8.68775C4.33842 8.61964 4.44383 8.61462 4.51193 8.67654L4.51194 8.67654L6.86673 10.8173L7.30064 11.2117L7.62155 10.7209L11.727 4.44199C11.7774 4.36494 11.8807 4.34334 11.9577 4.3937C12.0348 4.4441 12.0563 4.5474 12.006 4.6244L12.4245 4.89803L12.006 4.6244L7.47266 11.5578Z" fill="black" stroke="#16A34A"/>
</svg>
